<mxfile host="app.diagrams.net" modified="2024-01-18T13:43:39.462Z" agent="Mozilla/5.0 (Windows NT 10.0; Win64; x64) AppleWebKit/537.36 (KHTML, like Gecko) Chrome/120.0.0.0 Safari/537.36 Edg/120.0.0.0" etag="vAs3seZSLfUUjVDtgvdm" version="22.1.21" type="github">
  <diagram name="第 1 页" id="x4J6eYd78eh3ljI6P3Jk">
    <mxGraphModel dx="1426" dy="751" grid="1" gridSize="10" guides="1" tooltips="1" connect="1" arrows="1" fold="1" page="1" pageScale="1" pageWidth="827" pageHeight="1169" math="0" shadow="0">
      <root>
        <mxCell id="0" />
        <mxCell id="1" parent="0" />
        <mxCell id="b7KvxzaDqBSzL2Ln1OuT-1" value="" style="endArrow=none;dashed=1;html=1;rounded=0;entryX=0.5;entryY=1;entryDx=0;entryDy=0;" edge="1" parent="1" target="b7KvxzaDqBSzL2Ln1OuT-13" source="b7KvxzaDqBSzL2Ln1OuT-61">
          <mxGeometry width="50" height="50" relative="1" as="geometry">
            <mxPoint x="912" y="720" as="sourcePoint" />
            <mxPoint x="922" y="330" as="targetPoint" />
          </mxGeometry>
        </mxCell>
        <mxCell id="b7KvxzaDqBSzL2Ln1OuT-2" value="" style="endArrow=none;dashed=1;html=1;rounded=0;entryX=0.5;entryY=1;entryDx=0;entryDy=0;" edge="1" parent="1" target="b7KvxzaDqBSzL2Ln1OuT-12" source="b7KvxzaDqBSzL2Ln1OuT-77">
          <mxGeometry width="50" height="50" relative="1" as="geometry">
            <mxPoint x="792" y="720" as="sourcePoint" />
            <mxPoint x="762" y="350" as="targetPoint" />
          </mxGeometry>
        </mxCell>
        <mxCell id="b7KvxzaDqBSzL2Ln1OuT-3" value="" style="endArrow=none;dashed=1;html=1;rounded=0;entryX=0.5;entryY=1;entryDx=0;entryDy=0;" edge="1" parent="1" target="b7KvxzaDqBSzL2Ln1OuT-11" source="b7KvxzaDqBSzL2Ln1OuT-75">
          <mxGeometry width="50" height="50" relative="1" as="geometry">
            <mxPoint x="660" y="720" as="sourcePoint" />
            <mxPoint x="650" y="340" as="targetPoint" />
          </mxGeometry>
        </mxCell>
        <mxCell id="b7KvxzaDqBSzL2Ln1OuT-4" value="" style="endArrow=none;dashed=1;html=1;rounded=0;entryX=0.5;entryY=1;entryDx=0;entryDy=0;" edge="1" parent="1" target="b7KvxzaDqBSzL2Ln1OuT-10" source="b7KvxzaDqBSzL2Ln1OuT-103">
          <mxGeometry width="50" height="50" relative="1" as="geometry">
            <mxPoint x="520" y="720" as="sourcePoint" />
            <mxPoint x="510" y="340" as="targetPoint" />
          </mxGeometry>
        </mxCell>
        <mxCell id="b7KvxzaDqBSzL2Ln1OuT-5" value="" style="endArrow=none;dashed=1;html=1;rounded=0;entryX=0.5;entryY=1;entryDx=0;entryDy=0;" edge="1" parent="1" target="b7KvxzaDqBSzL2Ln1OuT-9" source="b7KvxzaDqBSzL2Ln1OuT-68">
          <mxGeometry width="50" height="50" relative="1" as="geometry">
            <mxPoint x="385" y="720" as="sourcePoint" />
            <mxPoint x="400" y="350" as="targetPoint" />
          </mxGeometry>
        </mxCell>
        <mxCell id="b7KvxzaDqBSzL2Ln1OuT-6" value="" style="endArrow=none;dashed=1;html=1;rounded=0;entryX=0.5;entryY=1;entryDx=0;entryDy=0;" edge="1" parent="1" target="b7KvxzaDqBSzL2Ln1OuT-8" source="b7KvxzaDqBSzL2Ln1OuT-18">
          <mxGeometry width="50" height="50" relative="1" as="geometry">
            <mxPoint x="225" y="720" as="sourcePoint" />
            <mxPoint x="560" y="340" as="targetPoint" />
          </mxGeometry>
        </mxCell>
        <mxCell id="b7KvxzaDqBSzL2Ln1OuT-7" value="" style="endArrow=none;dashed=1;html=1;rounded=0;entryX=0.5;entryY=1;entryDx=0;entryDy=0;" edge="1" parent="1" target="b7KvxzaDqBSzL2Ln1OuT-27" source="b7KvxzaDqBSzL2Ln1OuT-59">
          <mxGeometry width="50" height="50" relative="1" as="geometry">
            <mxPoint x="75" y="720" as="sourcePoint" />
            <mxPoint x="65" y="350" as="targetPoint" />
          </mxGeometry>
        </mxCell>
        <mxCell id="b7KvxzaDqBSzL2Ln1OuT-8" value="&lt;font style=&quot;font-size: 14px;&quot;&gt;省CRM&lt;/font&gt;" style="rounded=1;whiteSpace=wrap;html=1;fillColor=#dae8fc;strokeColor=#6c8ebf;" vertex="1" parent="1">
          <mxGeometry x="180" y="270" width="90" height="40" as="geometry" />
        </mxCell>
        <mxCell id="b7KvxzaDqBSzL2Ln1OuT-9" value="&lt;font style=&quot;font-size: 14px;&quot;&gt;集团订单中心&lt;/font&gt;" style="rounded=1;whiteSpace=wrap;html=1;fillColor=#dae8fc;strokeColor=#6c8ebf;" vertex="1" parent="1">
          <mxGeometry x="340" y="270" width="90" height="40" as="geometry" />
        </mxCell>
        <mxCell id="b7KvxzaDqBSzL2Ln1OuT-10" value="&lt;font style=&quot;font-size: 14px;&quot;&gt;集团编排&lt;/font&gt;" style="rounded=1;whiteSpace=wrap;html=1;fillColor=#dae8fc;strokeColor=#6c8ebf;" vertex="1" parent="1">
          <mxGeometry x="475" y="270" width="90" height="40" as="geometry" />
        </mxCell>
        <mxCell id="b7KvxzaDqBSzL2Ln1OuT-11" value="&lt;font style=&quot;font-size: 14px;&quot;&gt;AI业务中台&lt;/font&gt;" style="rounded=1;whiteSpace=wrap;html=1;fillColor=#dae8fc;strokeColor=#6c8ebf;" vertex="1" parent="1">
          <mxGeometry x="615" y="270" width="90" height="40" as="geometry" />
        </mxCell>
        <mxCell id="b7KvxzaDqBSzL2Ln1OuT-12" value="&lt;font style=&quot;font-size: 14px;&quot;&gt;星辰智慧大脑平台&lt;/font&gt;" style="rounded=1;whiteSpace=wrap;html=1;fillColor=#dae8fc;strokeColor=#6c8ebf;" vertex="1" parent="1">
          <mxGeometry x="732" y="270" width="120" height="40" as="geometry" />
        </mxCell>
        <mxCell id="b7KvxzaDqBSzL2Ln1OuT-13" value="&lt;font style=&quot;font-size: 14px;&quot;&gt;省编排&lt;/font&gt;" style="rounded=1;whiteSpace=wrap;html=1;fillColor=#dae8fc;strokeColor=#6c8ebf;" vertex="1" parent="1">
          <mxGeometry x="867" y="270" width="90" height="40" as="geometry" />
        </mxCell>
        <mxCell id="b7KvxzaDqBSzL2Ln1OuT-15" value="" style="rounded=0;whiteSpace=wrap;html=1;fillColor=#dae8fc;strokeColor=#6c8ebf;" vertex="1" parent="1">
          <mxGeometry x="215" y="340" width="20" height="51" as="geometry" />
        </mxCell>
        <mxCell id="b7KvxzaDqBSzL2Ln1OuT-16" value="" style="endArrow=classic;html=1;rounded=0;entryX=0;entryY=0.5;entryDx=0;entryDy=0;exitX=1;exitY=0.5;exitDx=0;exitDy=0;" edge="1" parent="1" source="b7KvxzaDqBSzL2Ln1OuT-59" target="b7KvxzaDqBSzL2Ln1OuT-15">
          <mxGeometry relative="1" as="geometry">
            <mxPoint x="85" y="341" as="sourcePoint" />
            <mxPoint x="225" y="380" as="targetPoint" />
          </mxGeometry>
        </mxCell>
        <mxCell id="b7KvxzaDqBSzL2Ln1OuT-17" value="发起业务撤单" style="edgeLabel;resizable=0;html=1;align=center;verticalAlign=middle;" connectable="0" vertex="1" parent="b7KvxzaDqBSzL2Ln1OuT-16">
          <mxGeometry relative="1" as="geometry" />
        </mxCell>
        <mxCell id="b7KvxzaDqBSzL2Ln1OuT-27" value="&lt;font style=&quot;font-size: 14px;&quot;&gt;营业受理&lt;/font&gt;" style="rounded=1;whiteSpace=wrap;html=1;fillColor=#dae8fc;strokeColor=#6c8ebf;" vertex="1" parent="1">
          <mxGeometry x="30" y="270" width="90" height="40" as="geometry" />
        </mxCell>
        <mxCell id="b7KvxzaDqBSzL2Ln1OuT-51" value="" style="endArrow=classic;html=1;rounded=0;exitX=1;exitY=0.678;exitDx=0;exitDy=0;entryX=0;entryY=0.5;entryDx=0;entryDy=0;exitPerimeter=0;" edge="1" parent="1">
          <mxGeometry relative="1" as="geometry">
            <mxPoint x="235" y="626.52" as="sourcePoint" />
            <mxPoint x="375" y="625.5" as="targetPoint" />
          </mxGeometry>
        </mxCell>
        <mxCell id="b7KvxzaDqBSzL2Ln1OuT-52" value="撤销订单报竣" style="edgeLabel;resizable=0;html=1;align=center;verticalAlign=middle;" connectable="0" vertex="1" parent="b7KvxzaDqBSzL2Ln1OuT-51">
          <mxGeometry relative="1" as="geometry" />
        </mxCell>
        <mxCell id="b7KvxzaDqBSzL2Ln1OuT-54" value="" style="endArrow=classic;html=1;rounded=0;exitX=1;exitY=0.5;exitDx=0;exitDy=0;" edge="1" parent="1">
          <mxGeometry relative="1" as="geometry">
            <mxPoint x="395" y="625.5" as="sourcePoint" />
            <mxPoint x="510" y="625.5" as="targetPoint" />
          </mxGeometry>
        </mxCell>
        <mxCell id="b7KvxzaDqBSzL2Ln1OuT-55" value="撤销订单报竣" style="edgeLabel;resizable=0;html=1;align=center;verticalAlign=middle;" connectable="0" vertex="1" parent="b7KvxzaDqBSzL2Ln1OuT-54">
          <mxGeometry relative="1" as="geometry" />
        </mxCell>
        <mxCell id="b7KvxzaDqBSzL2Ln1OuT-57" value="" style="endArrow=classic;html=1;rounded=0;exitX=1;exitY=0.5;exitDx=0;exitDy=0;entryX=0;entryY=0.5;entryDx=0;entryDy=0;" edge="1" parent="1">
          <mxGeometry relative="1" as="geometry">
            <mxPoint x="530" y="625.5" as="sourcePoint" />
            <mxPoint x="650" y="625.5" as="targetPoint" />
          </mxGeometry>
        </mxCell>
        <mxCell id="b7KvxzaDqBSzL2Ln1OuT-58" value="撤销订单报竣" style="edgeLabel;resizable=0;html=1;align=center;verticalAlign=middle;" connectable="0" vertex="1" parent="b7KvxzaDqBSzL2Ln1OuT-57">
          <mxGeometry relative="1" as="geometry" />
        </mxCell>
        <mxCell id="b7KvxzaDqBSzL2Ln1OuT-60" value="" style="endArrow=none;dashed=1;html=1;rounded=0;entryX=0.5;entryY=1;entryDx=0;entryDy=0;" edge="1" parent="1" target="b7KvxzaDqBSzL2Ln1OuT-59">
          <mxGeometry width="50" height="50" relative="1" as="geometry">
            <mxPoint x="75" y="680" as="sourcePoint" />
            <mxPoint x="75" y="310" as="targetPoint" />
          </mxGeometry>
        </mxCell>
        <mxCell id="b7KvxzaDqBSzL2Ln1OuT-59" value="" style="rounded=0;whiteSpace=wrap;html=1;fillColor=#dae8fc;strokeColor=#6c8ebf;" vertex="1" parent="1">
          <mxGeometry x="65" y="340" width="20" height="51" as="geometry" />
        </mxCell>
        <mxCell id="b7KvxzaDqBSzL2Ln1OuT-62" value="" style="endArrow=none;dashed=1;html=1;rounded=0;entryX=0.5;entryY=1;entryDx=0;entryDy=0;" edge="1" parent="1" target="b7KvxzaDqBSzL2Ln1OuT-61">
          <mxGeometry width="50" height="50" relative="1" as="geometry">
            <mxPoint x="912" y="680" as="sourcePoint" />
            <mxPoint x="912" y="310" as="targetPoint" />
          </mxGeometry>
        </mxCell>
        <mxCell id="b7KvxzaDqBSzL2Ln1OuT-61" value="" style="rounded=0;whiteSpace=wrap;html=1;fillColor=#dae8fc;strokeColor=#6c8ebf;" vertex="1" parent="1">
          <mxGeometry x="902" y="332" width="20" height="258" as="geometry" />
        </mxCell>
        <mxCell id="b7KvxzaDqBSzL2Ln1OuT-63" value="" style="endArrow=classic;html=1;rounded=0;exitX=1;exitY=0.5;exitDx=0;exitDy=0;entryX=-0.1;entryY=0.132;entryDx=0;entryDy=0;entryPerimeter=0;" edge="1" parent="1" source="b7KvxzaDqBSzL2Ln1OuT-15" target="b7KvxzaDqBSzL2Ln1OuT-61">
          <mxGeometry relative="1" as="geometry">
            <mxPoint x="360" y="390" as="sourcePoint" />
            <mxPoint x="900" y="366" as="targetPoint" />
          </mxGeometry>
        </mxCell>
        <mxCell id="b7KvxzaDqBSzL2Ln1OuT-64" value="发起星辰智慧大脑订单撤单申请" style="edgeLabel;resizable=0;html=1;align=center;verticalAlign=middle;" connectable="0" vertex="1" parent="b7KvxzaDqBSzL2Ln1OuT-63">
          <mxGeometry relative="1" as="geometry" />
        </mxCell>
        <mxCell id="b7KvxzaDqBSzL2Ln1OuT-66" value="" style="endArrow=classic;html=1;rounded=0;exitX=1;exitY=0.5;exitDx=0;exitDy=0;entryX=0;entryY=0.25;entryDx=0;entryDy=0;" edge="1" parent="1" source="b7KvxzaDqBSzL2Ln1OuT-18" target="b7KvxzaDqBSzL2Ln1OuT-68">
          <mxGeometry relative="1" as="geometry">
            <mxPoint x="260" y="430" as="sourcePoint" />
            <mxPoint x="310" y="435" as="targetPoint" />
          </mxGeometry>
        </mxCell>
        <mxCell id="b7KvxzaDqBSzL2Ln1OuT-67" value="发起星辰智慧大脑&lt;br&gt;订单撤单申请" style="edgeLabel;resizable=0;html=1;align=center;verticalAlign=middle;" connectable="0" vertex="1" parent="b7KvxzaDqBSzL2Ln1OuT-66">
          <mxGeometry relative="1" as="geometry" />
        </mxCell>
        <mxCell id="b7KvxzaDqBSzL2Ln1OuT-69" value="" style="endArrow=none;dashed=1;html=1;rounded=0;entryX=0.5;entryY=1;entryDx=0;entryDy=0;" edge="1" parent="1" source="b7KvxzaDqBSzL2Ln1OuT-101" target="b7KvxzaDqBSzL2Ln1OuT-68">
          <mxGeometry width="50" height="50" relative="1" as="geometry">
            <mxPoint x="385" y="720" as="sourcePoint" />
            <mxPoint x="385" y="310" as="targetPoint" />
          </mxGeometry>
        </mxCell>
        <mxCell id="b7KvxzaDqBSzL2Ln1OuT-68" value="" style="rounded=0;whiteSpace=wrap;html=1;fillColor=#dae8fc;strokeColor=#6c8ebf;" vertex="1" parent="1">
          <mxGeometry x="375" y="410" width="20" height="110" as="geometry" />
        </mxCell>
        <mxCell id="b7KvxzaDqBSzL2Ln1OuT-70" value="" style="endArrow=classic;html=1;rounded=0;exitX=1;exitY=0.25;exitDx=0;exitDy=0;entryX=0;entryY=0.25;entryDx=0;entryDy=0;" edge="1" parent="1" source="b7KvxzaDqBSzL2Ln1OuT-68" target="b7KvxzaDqBSzL2Ln1OuT-74">
          <mxGeometry relative="1" as="geometry">
            <mxPoint x="414" y="440" as="sourcePoint" />
            <mxPoint x="500" y="435" as="targetPoint" />
          </mxGeometry>
        </mxCell>
        <mxCell id="b7KvxzaDqBSzL2Ln1OuT-71" value="订单撤单提交" style="edgeLabel;resizable=0;html=1;align=center;verticalAlign=middle;" connectable="0" vertex="1" parent="b7KvxzaDqBSzL2Ln1OuT-70">
          <mxGeometry relative="1" as="geometry" />
        </mxCell>
        <mxCell id="b7KvxzaDqBSzL2Ln1OuT-74" value="" style="rounded=0;whiteSpace=wrap;html=1;fillColor=#dae8fc;strokeColor=#6c8ebf;" vertex="1" parent="1">
          <mxGeometry x="510" y="407" width="20" height="113" as="geometry" />
        </mxCell>
        <mxCell id="b7KvxzaDqBSzL2Ln1OuT-76" value="" style="endArrow=none;dashed=1;html=1;rounded=0;entryX=0.5;entryY=1;entryDx=0;entryDy=0;" edge="1" parent="1" target="b7KvxzaDqBSzL2Ln1OuT-75">
          <mxGeometry width="50" height="50" relative="1" as="geometry">
            <mxPoint x="660" y="680" as="sourcePoint" />
            <mxPoint x="660" y="310" as="targetPoint" />
          </mxGeometry>
        </mxCell>
        <mxCell id="b7KvxzaDqBSzL2Ln1OuT-75" value="" style="rounded=0;whiteSpace=wrap;html=1;fillColor=#dae8fc;strokeColor=#6c8ebf;" vertex="1" parent="1">
          <mxGeometry x="650" y="407" width="20" height="113" as="geometry" />
        </mxCell>
        <mxCell id="b7KvxzaDqBSzL2Ln1OuT-78" value="" style="endArrow=none;dashed=1;html=1;rounded=0;entryX=0.5;entryY=1;entryDx=0;entryDy=0;" edge="1" parent="1" target="b7KvxzaDqBSzL2Ln1OuT-77">
          <mxGeometry width="50" height="50" relative="1" as="geometry">
            <mxPoint x="792" y="680" as="sourcePoint" />
            <mxPoint x="792" y="310" as="targetPoint" />
          </mxGeometry>
        </mxCell>
        <mxCell id="b7KvxzaDqBSzL2Ln1OuT-77" value="" style="rounded=0;whiteSpace=wrap;html=1;fillColor=#dae8fc;strokeColor=#6c8ebf;" vertex="1" parent="1">
          <mxGeometry x="782" y="407" width="20" height="113" as="geometry" />
        </mxCell>
        <mxCell id="b7KvxzaDqBSzL2Ln1OuT-79" value="" style="endArrow=classic;html=1;rounded=0;exitX=1;exitY=0.25;exitDx=0;exitDy=0;entryX=0;entryY=0.25;entryDx=0;entryDy=0;" edge="1" parent="1" source="b7KvxzaDqBSzL2Ln1OuT-74" target="b7KvxzaDqBSzL2Ln1OuT-75">
          <mxGeometry relative="1" as="geometry">
            <mxPoint x="535" y="430" as="sourcePoint" />
            <mxPoint x="650" y="430" as="targetPoint" />
          </mxGeometry>
        </mxCell>
        <mxCell id="b7KvxzaDqBSzL2Ln1OuT-80" value="订单撤单提交" style="edgeLabel;resizable=0;html=1;align=center;verticalAlign=middle;" connectable="0" vertex="1" parent="b7KvxzaDqBSzL2Ln1OuT-79">
          <mxGeometry relative="1" as="geometry" />
        </mxCell>
        <mxCell id="b7KvxzaDqBSzL2Ln1OuT-81" value="" style="endArrow=classic;html=1;rounded=0;exitX=1;exitY=0.25;exitDx=0;exitDy=0;entryX=0;entryY=0.25;entryDx=0;entryDy=0;" edge="1" parent="1" source="b7KvxzaDqBSzL2Ln1OuT-75" target="b7KvxzaDqBSzL2Ln1OuT-77">
          <mxGeometry relative="1" as="geometry">
            <mxPoint x="700" y="445" as="sourcePoint" />
            <mxPoint x="820" y="445" as="targetPoint" />
          </mxGeometry>
        </mxCell>
        <mxCell id="b7KvxzaDqBSzL2Ln1OuT-82" value="订单撤单提交" style="edgeLabel;resizable=0;html=1;align=center;verticalAlign=middle;" connectable="0" vertex="1" parent="b7KvxzaDqBSzL2Ln1OuT-81">
          <mxGeometry relative="1" as="geometry" />
        </mxCell>
        <mxCell id="b7KvxzaDqBSzL2Ln1OuT-83" value="" style="endArrow=classic;html=1;rounded=0;exitX=1;exitY=0.25;exitDx=0;exitDy=0;entryX=1;entryY=0.75;entryDx=0;entryDy=0;" edge="1" parent="1" source="b7KvxzaDqBSzL2Ln1OuT-77" target="b7KvxzaDqBSzL2Ln1OuT-77">
          <mxGeometry relative="1" as="geometry">
            <mxPoint x="810" y="445" as="sourcePoint" />
            <mxPoint x="922" y="445" as="targetPoint" />
            <Array as="points">
              <mxPoint x="850" y="435" />
              <mxPoint x="850" y="492" />
            </Array>
          </mxGeometry>
        </mxCell>
        <mxCell id="b7KvxzaDqBSzL2Ln1OuT-84" value="应用平台&lt;br&gt;数据和功能回滚" style="edgeLabel;resizable=0;html=1;align=center;verticalAlign=middle;" connectable="0" vertex="1" parent="b7KvxzaDqBSzL2Ln1OuT-83">
          <mxGeometry relative="1" as="geometry" />
        </mxCell>
        <mxCell id="b7KvxzaDqBSzL2Ln1OuT-85" value="" style="endArrow=classic;html=1;rounded=0;exitX=0;exitY=0.75;exitDx=0;exitDy=0;entryX=1;entryY=0.75;entryDx=0;entryDy=0;" edge="1" parent="1" source="b7KvxzaDqBSzL2Ln1OuT-77" target="b7KvxzaDqBSzL2Ln1OuT-75">
          <mxGeometry relative="1" as="geometry">
            <mxPoint x="680" y="445" as="sourcePoint" />
            <mxPoint x="792" y="445" as="targetPoint" />
          </mxGeometry>
        </mxCell>
        <mxCell id="b7KvxzaDqBSzL2Ln1OuT-86" value="订单撤单结果反馈" style="edgeLabel;resizable=0;html=1;align=center;verticalAlign=middle;" connectable="0" vertex="1" parent="b7KvxzaDqBSzL2Ln1OuT-85">
          <mxGeometry relative="1" as="geometry" />
        </mxCell>
        <mxCell id="b7KvxzaDqBSzL2Ln1OuT-87" value="" style="endArrow=classic;html=1;rounded=0;exitX=0;exitY=0.75;exitDx=0;exitDy=0;entryX=1;entryY=0.75;entryDx=0;entryDy=0;" edge="1" parent="1" source="b7KvxzaDqBSzL2Ln1OuT-75" target="b7KvxzaDqBSzL2Ln1OuT-74">
          <mxGeometry relative="1" as="geometry">
            <mxPoint x="632" y="490" as="sourcePoint" />
            <mxPoint x="520" y="490" as="targetPoint" />
          </mxGeometry>
        </mxCell>
        <mxCell id="b7KvxzaDqBSzL2Ln1OuT-88" value="订单撤单结果反馈" style="edgeLabel;resizable=0;html=1;align=center;verticalAlign=middle;" connectable="0" vertex="1" parent="b7KvxzaDqBSzL2Ln1OuT-87">
          <mxGeometry relative="1" as="geometry" />
        </mxCell>
        <mxCell id="b7KvxzaDqBSzL2Ln1OuT-89" value="" style="endArrow=classic;html=1;rounded=0;exitX=0;exitY=0.75;exitDx=0;exitDy=0;entryX=1;entryY=0.75;entryDx=0;entryDy=0;" edge="1" parent="1" source="b7KvxzaDqBSzL2Ln1OuT-74" target="b7KvxzaDqBSzL2Ln1OuT-68">
          <mxGeometry relative="1" as="geometry">
            <mxPoint x="495" y="490" as="sourcePoint" />
            <mxPoint x="375" y="490" as="targetPoint" />
          </mxGeometry>
        </mxCell>
        <mxCell id="b7KvxzaDqBSzL2Ln1OuT-90" value="订单撤单结果反馈" style="edgeLabel;resizable=0;html=1;align=center;verticalAlign=middle;" connectable="0" vertex="1" parent="b7KvxzaDqBSzL2Ln1OuT-89">
          <mxGeometry relative="1" as="geometry" />
        </mxCell>
        <mxCell id="b7KvxzaDqBSzL2Ln1OuT-91" value="" style="endArrow=classic;html=1;rounded=0;exitX=0;exitY=0.75;exitDx=0;exitDy=0;entryX=1;entryY=0.25;entryDx=0;entryDy=0;" edge="1" parent="1" source="b7KvxzaDqBSzL2Ln1OuT-68" target="b7KvxzaDqBSzL2Ln1OuT-93">
          <mxGeometry relative="1" as="geometry">
            <mxPoint x="340" y="500" as="sourcePoint" />
            <mxPoint x="225" y="500" as="targetPoint" />
          </mxGeometry>
        </mxCell>
        <mxCell id="b7KvxzaDqBSzL2Ln1OuT-92" value="订单撤单结果反馈" style="edgeLabel;resizable=0;html=1;align=center;verticalAlign=middle;" connectable="0" vertex="1" parent="b7KvxzaDqBSzL2Ln1OuT-91">
          <mxGeometry relative="1" as="geometry" />
        </mxCell>
        <mxCell id="b7KvxzaDqBSzL2Ln1OuT-94" value="" style="endArrow=none;dashed=1;html=1;rounded=0;entryX=0.5;entryY=1;entryDx=0;entryDy=0;" edge="1" parent="1" target="b7KvxzaDqBSzL2Ln1OuT-93">
          <mxGeometry width="50" height="50" relative="1" as="geometry">
            <mxPoint x="225" y="680" as="sourcePoint" />
            <mxPoint x="225" y="310" as="targetPoint" />
          </mxGeometry>
        </mxCell>
        <mxCell id="b7KvxzaDqBSzL2Ln1OuT-93" value="" style="rounded=0;whiteSpace=wrap;html=1;fillColor=#dae8fc;strokeColor=#6c8ebf;" vertex="1" parent="1">
          <mxGeometry x="215" y="470" width="20" height="110" as="geometry" />
        </mxCell>
        <mxCell id="b7KvxzaDqBSzL2Ln1OuT-95" value="" style="endArrow=none;dashed=1;html=1;rounded=0;entryX=0.5;entryY=1;entryDx=0;entryDy=0;" edge="1" parent="1" source="b7KvxzaDqBSzL2Ln1OuT-93" target="b7KvxzaDqBSzL2Ln1OuT-18">
          <mxGeometry width="50" height="50" relative="1" as="geometry">
            <mxPoint x="225" y="470" as="sourcePoint" />
            <mxPoint x="225" y="310" as="targetPoint" />
          </mxGeometry>
        </mxCell>
        <mxCell id="b7KvxzaDqBSzL2Ln1OuT-18" value="" style="rounded=0;whiteSpace=wrap;html=1;fillColor=#dae8fc;strokeColor=#6c8ebf;" vertex="1" parent="1">
          <mxGeometry x="215" y="420" width="20" height="43" as="geometry" />
        </mxCell>
        <mxCell id="b7KvxzaDqBSzL2Ln1OuT-96" value="" style="endArrow=classic;html=1;rounded=0;exitX=-0.1;exitY=0.884;exitDx=0;exitDy=0;exitPerimeter=0;entryX=0.95;entryY=0.836;entryDx=0;entryDy=0;entryPerimeter=0;" edge="1" parent="1" source="b7KvxzaDqBSzL2Ln1OuT-61" target="b7KvxzaDqBSzL2Ln1OuT-93">
          <mxGeometry relative="1" as="geometry">
            <mxPoint x="900" y="550" as="sourcePoint" />
            <mxPoint x="240" y="560" as="targetPoint" />
          </mxGeometry>
        </mxCell>
        <mxCell id="b7KvxzaDqBSzL2Ln1OuT-97" value="订单撤单结果反馈" style="edgeLabel;resizable=0;html=1;align=center;verticalAlign=middle;" connectable="0" vertex="1" parent="b7KvxzaDqBSzL2Ln1OuT-96">
          <mxGeometry relative="1" as="geometry" />
        </mxCell>
        <mxCell id="b7KvxzaDqBSzL2Ln1OuT-98" value="" style="endArrow=classic;html=1;rounded=0;exitX=1.1;exitY=0.143;exitDx=0;exitDy=0;exitPerimeter=0;" edge="1" parent="1" source="b7KvxzaDqBSzL2Ln1OuT-61">
          <mxGeometry relative="1" as="geometry">
            <mxPoint x="940" y="440" as="sourcePoint" />
            <mxPoint x="920" y="560" as="targetPoint" />
            <Array as="points">
              <mxPoint x="1000" y="369" />
              <mxPoint x="1000" y="560" />
            </Array>
          </mxGeometry>
        </mxCell>
        <mxCell id="b7KvxzaDqBSzL2Ln1OuT-99" value="订单撤单" style="edgeLabel;resizable=0;html=1;align=center;verticalAlign=middle;" connectable="0" vertex="1" parent="b7KvxzaDqBSzL2Ln1OuT-98">
          <mxGeometry relative="1" as="geometry" />
        </mxCell>
        <mxCell id="b7KvxzaDqBSzL2Ln1OuT-100" value="" style="rounded=0;whiteSpace=wrap;html=1;fillColor=#dae8fc;strokeColor=#6c8ebf;" vertex="1" parent="1">
          <mxGeometry x="215" y="600" width="20" height="51" as="geometry" />
        </mxCell>
        <mxCell id="b7KvxzaDqBSzL2Ln1OuT-102" value="" style="endArrow=none;dashed=1;html=1;rounded=0;entryX=0.5;entryY=1;entryDx=0;entryDy=0;" edge="1" parent="1" target="b7KvxzaDqBSzL2Ln1OuT-101">
          <mxGeometry width="50" height="50" relative="1" as="geometry">
            <mxPoint x="385" y="680" as="sourcePoint" />
            <mxPoint x="385" y="520" as="targetPoint" />
          </mxGeometry>
        </mxCell>
        <mxCell id="b7KvxzaDqBSzL2Ln1OuT-101" value="" style="rounded=0;whiteSpace=wrap;html=1;fillColor=#dae8fc;strokeColor=#6c8ebf;" vertex="1" parent="1">
          <mxGeometry x="375" y="600" width="20" height="51" as="geometry" />
        </mxCell>
        <mxCell id="b7KvxzaDqBSzL2Ln1OuT-104" value="" style="endArrow=none;dashed=1;html=1;rounded=0;entryX=0.5;entryY=1;entryDx=0;entryDy=0;" edge="1" parent="1" target="b7KvxzaDqBSzL2Ln1OuT-103">
          <mxGeometry width="50" height="50" relative="1" as="geometry">
            <mxPoint x="520" y="680" as="sourcePoint" />
            <mxPoint x="520" y="310" as="targetPoint" />
          </mxGeometry>
        </mxCell>
        <mxCell id="b7KvxzaDqBSzL2Ln1OuT-103" value="" style="rounded=0;whiteSpace=wrap;html=1;fillColor=#dae8fc;strokeColor=#6c8ebf;" vertex="1" parent="1">
          <mxGeometry x="510" y="600" width="20" height="51" as="geometry" />
        </mxCell>
        <mxCell id="b7KvxzaDqBSzL2Ln1OuT-105" value="" style="rounded=0;whiteSpace=wrap;html=1;fillColor=#dae8fc;strokeColor=#6c8ebf;" vertex="1" parent="1">
          <mxGeometry x="650" y="600" width="20" height="51" as="geometry" />
        </mxCell>
      </root>
    </mxGraphModel>
  </diagram>
</mxfile>
